<?xml version="1.0" encoding="UTF-8"?>
<svg width="100px" height="101px" viewBox="0 0 100 101" version="1.1" xmlns="http://www.w3.org/2000/svg" xmlns:xlink="http://www.w3.org/1999/xlink">
    <!-- Generator: Sketch 52.6 (67491) - http://www.bohemiancoding.com/sketch -->
    <title>Group 4</title>
    <desc>Created with Sketch.</desc>
    <g id="Page-1" stroke="none" stroke-width="1" fill="none" fill-rule="evenodd">
        <g id="Artboard-Copy" transform="translate(-201.000000, -1384.000000)">
            <g id="Group-4" transform="translate(201.000000, 1384.000000)">
                <circle id="Oval-Copy" fill="#FFFFFF" cx="50.0019531" cy="50.1819844" r="50"></circle>
                <path d="M60.5019531,26.1819844 L39.5019531,26.1819844 C37.0175781,26.1819844 35.0019531,28.1976094 35.0019531,30.6819844 L35.0019531,69.6819844 C35.0019531,72.1663594 37.0175781,74.1819844 39.5019531,74.1819844 L60.5019531,74.1819844 C62.9863281,74.1819844 65.0019531,72.1663594 65.0019531,69.6819844 L65.0019531,30.6819844 C65.0019531,28.1976094 62.9863281,26.1819844 60.5019531,26.1819844 Z M50.0019531,71.1819844 C48.3425781,71.1819844 47.0019531,69.8413594 47.0019531,68.1819844 C47.0019531,66.5226094 48.3425781,65.1819844 50.0019531,65.1819844 C51.6613281,65.1819844 53.0019531,66.5226094 53.0019531,68.1819844 C53.0019531,69.8413594 51.6613281,71.1819844 50.0019531,71.1819844 Z M60.5019531,61.0569844 C60.5019531,61.6757344 59.9957031,62.1819844 59.3769531,62.1819844 L40.6269531,62.1819844 C40.0082031,62.1819844 39.5019531,61.6757344 39.5019531,61.0569844 L39.5019531,31.8069844 C39.5019531,31.1882344 40.0082031,30.6819844 40.6269531,30.6819844 L59.3769531,30.6819844 C59.9957031,30.6819844 60.5019531,31.1882344 60.5019531,31.8069844 L60.5019531,61.0569844 Z" id="Shape" fill="#5AC470" fill-rule="nonzero"></path>
            </g>
        </g>
    </g>
</svg>