<?xml version="1.0" encoding="UTF-8"?>
<svg width="58px" height="41px" viewBox="0 0 58 41" version="1.1" xmlns="http://www.w3.org/2000/svg" xmlns:xlink="http://www.w3.org/1999/xlink">
    <!-- Generator: Sketch 52.6 (67491) - http://www.bohemiancoding.com/sketch -->
    <title>Shape</title>
    <desc>Created with Sketch.</desc>
    <g id="Page-1" stroke="none" stroke-width="1" fill="none" fill-rule="evenodd">
        <g id="Artboard-Copy" transform="translate(-770.000000, -1210.000000)" fill="#5AC470" fill-rule="nonzero">
            <g id="Group-13" transform="translate(770.000000, 1209.611328)">
                <path d="M48.4327166,18.2109375 C48.798788,17.2555804 49.0041452,16.2109375 49.0041452,15.1216518 C49.0041452,10.3895089 45.1648595,6.55022321 40.4327166,6.55022321 C38.673788,6.55022321 37.0309309,7.0859375 35.673788,7.99665179 C33.2005737,3.7109375 28.5845023,0.8359375 23.2898595,0.8359375 C15.3970023,0.8359375 9.00414517,7.22879464 9.00414517,15.1216518 C9.00414517,15.3627232 9.01307374,15.6037946 9.02200231,15.8448661 C4.02200231,17.6037946 0.432716595,22.3716518 0.432716595,27.9787946 C0.432716595,35.0770089 6.19164517,40.8359375 13.2898595,40.8359375 L46.1470023,40.8359375 C52.4595023,40.8359375 57.5755737,35.7198661 57.5755737,29.4073661 C57.5755737,23.8805804 53.6470023,19.2645089 48.4327166,18.2109375 Z M36.5666452,26.1305804 L27.1559309,35.5412946 C26.6023595,36.0948661 25.6916452,36.0948661 25.1380737,35.5412946 L15.7273595,26.1305804 C14.8255737,25.2287946 15.4684309,23.6930804 16.736288,23.6930804 L22.5755737,23.6930804 L22.5755737,13.6930804 C22.5755737,12.9073661 23.2184309,12.2645089 24.0041452,12.2645089 L28.2898595,12.2645089 C29.0755737,12.2645089 29.7184309,12.9073661 29.7184309,13.6930804 L29.7184309,23.6930804 L35.5577166,23.6930804 C36.8255737,23.6930804 37.4684309,25.2287946 36.5666452,26.1305804 Z" id="Shape"></path>
            </g>
        </g>
    </g>
</svg>