<?xml version="1.0" encoding="UTF-8"?>
<svg width="50px" height="49px" viewBox="0 0 50 49" version="1.1" xmlns="http://www.w3.org/2000/svg" xmlns:xlink="http://www.w3.org/1999/xlink">
    <!-- Generator: Sketch 52.6 (67491) - http://www.bohemiancoding.com/sketch -->
    <title>Path</title>
    <desc>Created with Sketch.</desc>
    <g id="Page-1" stroke="none" stroke-width="1" fill="none" fill-rule="evenodd">
        <g id="Artboard-Copy" transform="translate(-774.000000, -1448.000000)" fill="#5AC470">
            <g id="Group-13" transform="translate(770.000000, 1209.611328)">
                <path d="M29.0484921,238.458984 C15.4566603,238.458984 4.4478915,249.467753 4.4478915,263.059585 C4.4478915,273.945351 11.4898134,283.139825 21.2685522,286.399405 C22.4985822,286.61466 22.9598435,285.876642 22.9598435,285.230876 C22.9598435,284.646612 22.9290927,282.709315 22.9290927,280.649014 C16.7481918,281.786792 15.1491528,279.142228 14.6571407,277.758444 C14.380384,277.051177 13.1811047,274.867873 12.1355792,274.283609 C11.2745582,273.822348 10.0445281,272.68457 12.1048284,272.653819 C14.0421257,272.623068 15.4259095,274.437363 15.8871708,275.175381 C18.1012248,278.896222 21.6375612,277.850696 23.0520957,277.20493 C23.267351,275.605891 23.9131167,274.529615 24.620384,273.9146 C19.1467504,273.299585 13.4271107,271.177783 13.4271107,261.768053 C13.4271107,259.092738 14.380384,256.878684 15.9486723,255.156642 C15.7026663,254.541627 14.8416453,252.020065 16.1946783,248.637483 C16.1946783,248.637483 18.2549786,247.991717 22.9598435,251.159044 C24.9278915,250.605531 27.0189425,250.328774 29.1099936,250.328774 C31.2010447,250.328774 33.2920957,250.605531 35.2601438,251.159044 C39.9650086,247.960966 42.0253089,248.637483 42.0253089,248.637483 C43.3783419,252.020065 42.5173209,254.541627 42.2713149,255.156642 C43.8396032,256.878684 44.7928765,259.061987 44.7928765,261.768053 C44.7928765,271.208534 39.0424861,273.299585 33.5688525,273.9146 C34.4606242,274.683369 35.229393,276.159405 35.229393,278.465711 C35.229393,281.756041 35.1986422,284.400606 35.1986422,285.230876 C35.1986422,285.876642 35.6599035,286.645411 36.8899335,286.399405 C46.6071708,283.139825 53.6490927,273.9146 53.6490927,263.059585 C53.6490927,249.467753 42.6403239,238.458984 29.0484921,238.458984 Z" id="Path"></path>
            </g>
        </g>
    </g>
</svg>