<?xml version="1.0" encoding="UTF-8"?>
<svg width="101px" height="101px" viewBox="0 0 101 101" version="1.1" xmlns="http://www.w3.org/2000/svg" xmlns:xlink="http://www.w3.org/1999/xlink">
    <!-- Generator: Sketch 52.6 (67491) - http://www.bohemiancoding.com/sketch -->
    <title>Group 5</title>
    <desc>Created with Sketch.</desc>
    <g id="Page-1" stroke="none" stroke-width="1" fill="none" fill-rule="evenodd">
        <g id="Artboard-Copy" transform="translate(-413.000000, -1384.000000)">
            <g id="Group-5" transform="translate(413.000000, 1384.000000)">
                <circle id="Oval" fill="#FFFFFF" cx="50.5859375" cy="50.1819844" r="50"></circle>
                <path d="M60.2575504,37.9748876 L46.2891633,44.3590811 C45.6135956,44.6678785 45.0718316,45.2096425 44.7630343,45.8852102 L38.3788407,59.8535973 C37.6423891,61.4648876 39.3020665,63.1255328 40.9143246,62.3890811 L54.8827117,56.0048876 C55.5582794,55.6960902 56.1000434,55.1543262 56.4088407,54.4787586 L62.7930343,40.5103715 C63.5294859,38.8981134 61.8698085,37.238436 60.2575504,37.9748876 Z M52.7710988,52.3671457 C51.5643246,53.5739199 49.6075504,53.5739199 48.4007762,52.3671457 C47.194002,51.1603715 47.194002,49.2035973 48.4007762,47.9968231 C49.6075504,46.7900489 51.5643246,46.7900489 52.7710988,47.9968231 C53.977873,49.2035973 53.977873,51.1603715 52.7710988,52.3671457 Z M50.5859375,26.1819844 C37.3307762,26.1819844 26.5859375,36.9268231 26.5859375,50.1819844 C26.5859375,63.4371457 37.3307762,74.1819844 50.5859375,74.1819844 C63.8410988,74.1819844 74.5859375,63.4371457 74.5859375,50.1819844 C74.5859375,36.9268231 63.8410988,26.1819844 50.5859375,26.1819844 Z M50.5859375,69.5368231 C39.9136794,69.5368231 31.2310988,60.8542424 31.2310988,50.1819844 C31.2310988,39.5097263 39.9136794,30.8271457 50.5859375,30.8271457 C61.2581956,30.8271457 69.9407762,39.5097263 69.9407762,50.1819844 C69.9407762,60.8542424 61.2581956,69.5368231 50.5859375,69.5368231 Z" id="Shape" fill="#5AC470" fill-rule="nonzero"></path>
            </g>
        </g>
    </g>
</svg>